%TF.GenerationSoftware,KiCad,Pcbnew,9.0.8-9.0.8~ubuntu22.04.1*%
%TF.CreationDate,2026-03-23T11:45:01-05:00*%
%TF.ProjectId,MiniRoverBoard,4d696e69-526f-4766-9572-426f6172642e,rev?*%
%TF.SameCoordinates,Original*%
%TF.FileFunction,Legend,Bot*%
%TF.FilePolarity,Positive*%
%FSLAX46Y46*%
G04 Gerber Fmt 4.6, Leading zero omitted, Abs format (unit mm)*
G04 Created by KiCad (PCBNEW 9.0.8-9.0.8~ubuntu22.04.1) date 2026-03-23 11:45:01*
%MOMM*%
%LPD*%
G01*
G04 APERTURE LIST*
%ADD10C,0.222250*%
%ADD11C,0.508000*%
G04 APERTURE END LIST*
D10*
X169483449Y-77035410D02*
X169483449Y-75257410D01*
X169483449Y-75257410D02*
X168890783Y-76527410D01*
X168890783Y-76527410D02*
X168298116Y-75257410D01*
X168298116Y-75257410D02*
X168298116Y-77035410D01*
X167451449Y-77035410D02*
X167451449Y-75850077D01*
X167451449Y-75257410D02*
X167536116Y-75342077D01*
X167536116Y-75342077D02*
X167451449Y-75426744D01*
X167451449Y-75426744D02*
X167366783Y-75342077D01*
X167366783Y-75342077D02*
X167451449Y-75257410D01*
X167451449Y-75257410D02*
X167451449Y-75426744D01*
X166604782Y-75850077D02*
X166604782Y-77035410D01*
X166604782Y-76019410D02*
X166520116Y-75934744D01*
X166520116Y-75934744D02*
X166350782Y-75850077D01*
X166350782Y-75850077D02*
X166096782Y-75850077D01*
X166096782Y-75850077D02*
X165927449Y-75934744D01*
X165927449Y-75934744D02*
X165842782Y-76104077D01*
X165842782Y-76104077D02*
X165842782Y-77035410D01*
X164996115Y-77035410D02*
X164996115Y-75850077D01*
X164996115Y-75257410D02*
X165080782Y-75342077D01*
X165080782Y-75342077D02*
X164996115Y-75426744D01*
X164996115Y-75426744D02*
X164911449Y-75342077D01*
X164911449Y-75342077D02*
X164996115Y-75257410D01*
X164996115Y-75257410D02*
X164996115Y-75426744D01*
X161778781Y-77035410D02*
X162371448Y-76188744D01*
X162794781Y-77035410D02*
X162794781Y-75257410D01*
X162794781Y-75257410D02*
X162117448Y-75257410D01*
X162117448Y-75257410D02*
X161948115Y-75342077D01*
X161948115Y-75342077D02*
X161863448Y-75426744D01*
X161863448Y-75426744D02*
X161778781Y-75596077D01*
X161778781Y-75596077D02*
X161778781Y-75850077D01*
X161778781Y-75850077D02*
X161863448Y-76019410D01*
X161863448Y-76019410D02*
X161948115Y-76104077D01*
X161948115Y-76104077D02*
X162117448Y-76188744D01*
X162117448Y-76188744D02*
X162794781Y-76188744D01*
X160762781Y-77035410D02*
X160932115Y-76950744D01*
X160932115Y-76950744D02*
X161016781Y-76866077D01*
X161016781Y-76866077D02*
X161101448Y-76696744D01*
X161101448Y-76696744D02*
X161101448Y-76188744D01*
X161101448Y-76188744D02*
X161016781Y-76019410D01*
X161016781Y-76019410D02*
X160932115Y-75934744D01*
X160932115Y-75934744D02*
X160762781Y-75850077D01*
X160762781Y-75850077D02*
X160508781Y-75850077D01*
X160508781Y-75850077D02*
X160339448Y-75934744D01*
X160339448Y-75934744D02*
X160254781Y-76019410D01*
X160254781Y-76019410D02*
X160170115Y-76188744D01*
X160170115Y-76188744D02*
X160170115Y-76696744D01*
X160170115Y-76696744D02*
X160254781Y-76866077D01*
X160254781Y-76866077D02*
X160339448Y-76950744D01*
X160339448Y-76950744D02*
X160508781Y-77035410D01*
X160508781Y-77035410D02*
X160762781Y-77035410D01*
X159577448Y-75850077D02*
X159154114Y-77035410D01*
X159154114Y-77035410D02*
X158730781Y-75850077D01*
X157376114Y-76950744D02*
X157545447Y-77035410D01*
X157545447Y-77035410D02*
X157884114Y-77035410D01*
X157884114Y-77035410D02*
X158053447Y-76950744D01*
X158053447Y-76950744D02*
X158138114Y-76781410D01*
X158138114Y-76781410D02*
X158138114Y-76104077D01*
X158138114Y-76104077D02*
X158053447Y-75934744D01*
X158053447Y-75934744D02*
X157884114Y-75850077D01*
X157884114Y-75850077D02*
X157545447Y-75850077D01*
X157545447Y-75850077D02*
X157376114Y-75934744D01*
X157376114Y-75934744D02*
X157291447Y-76104077D01*
X157291447Y-76104077D02*
X157291447Y-76273410D01*
X157291447Y-76273410D02*
X158138114Y-76442744D01*
X156529447Y-77035410D02*
X156529447Y-75850077D01*
X156529447Y-76188744D02*
X156444781Y-76019410D01*
X156444781Y-76019410D02*
X156360114Y-75934744D01*
X156360114Y-75934744D02*
X156190781Y-75850077D01*
X156190781Y-75850077D02*
X156021447Y-75850077D01*
X153481447Y-76104077D02*
X153227447Y-76188744D01*
X153227447Y-76188744D02*
X153142780Y-76273410D01*
X153142780Y-76273410D02*
X153058113Y-76442744D01*
X153058113Y-76442744D02*
X153058113Y-76696744D01*
X153058113Y-76696744D02*
X153142780Y-76866077D01*
X153142780Y-76866077D02*
X153227447Y-76950744D01*
X153227447Y-76950744D02*
X153396780Y-77035410D01*
X153396780Y-77035410D02*
X154074113Y-77035410D01*
X154074113Y-77035410D02*
X154074113Y-75257410D01*
X154074113Y-75257410D02*
X153481447Y-75257410D01*
X153481447Y-75257410D02*
X153312113Y-75342077D01*
X153312113Y-75342077D02*
X153227447Y-75426744D01*
X153227447Y-75426744D02*
X153142780Y-75596077D01*
X153142780Y-75596077D02*
X153142780Y-75765410D01*
X153142780Y-75765410D02*
X153227447Y-75934744D01*
X153227447Y-75934744D02*
X153312113Y-76019410D01*
X153312113Y-76019410D02*
X153481447Y-76104077D01*
X153481447Y-76104077D02*
X154074113Y-76104077D01*
X152042113Y-77035410D02*
X152211447Y-76950744D01*
X152211447Y-76950744D02*
X152296113Y-76866077D01*
X152296113Y-76866077D02*
X152380780Y-76696744D01*
X152380780Y-76696744D02*
X152380780Y-76188744D01*
X152380780Y-76188744D02*
X152296113Y-76019410D01*
X152296113Y-76019410D02*
X152211447Y-75934744D01*
X152211447Y-75934744D02*
X152042113Y-75850077D01*
X152042113Y-75850077D02*
X151788113Y-75850077D01*
X151788113Y-75850077D02*
X151618780Y-75934744D01*
X151618780Y-75934744D02*
X151534113Y-76019410D01*
X151534113Y-76019410D02*
X151449447Y-76188744D01*
X151449447Y-76188744D02*
X151449447Y-76696744D01*
X151449447Y-76696744D02*
X151534113Y-76866077D01*
X151534113Y-76866077D02*
X151618780Y-76950744D01*
X151618780Y-76950744D02*
X151788113Y-77035410D01*
X151788113Y-77035410D02*
X152042113Y-77035410D01*
X149925446Y-77035410D02*
X149925446Y-76104077D01*
X149925446Y-76104077D02*
X150010113Y-75934744D01*
X150010113Y-75934744D02*
X150179446Y-75850077D01*
X150179446Y-75850077D02*
X150518113Y-75850077D01*
X150518113Y-75850077D02*
X150687446Y-75934744D01*
X149925446Y-76950744D02*
X150094780Y-77035410D01*
X150094780Y-77035410D02*
X150518113Y-77035410D01*
X150518113Y-77035410D02*
X150687446Y-76950744D01*
X150687446Y-76950744D02*
X150772113Y-76781410D01*
X150772113Y-76781410D02*
X150772113Y-76612077D01*
X150772113Y-76612077D02*
X150687446Y-76442744D01*
X150687446Y-76442744D02*
X150518113Y-76358077D01*
X150518113Y-76358077D02*
X150094780Y-76358077D01*
X150094780Y-76358077D02*
X149925446Y-76273410D01*
X149078779Y-77035410D02*
X149078779Y-75850077D01*
X149078779Y-76188744D02*
X148994113Y-76019410D01*
X148994113Y-76019410D02*
X148909446Y-75934744D01*
X148909446Y-75934744D02*
X148740113Y-75850077D01*
X148740113Y-75850077D02*
X148570779Y-75850077D01*
X147216112Y-77035410D02*
X147216112Y-75257410D01*
X147216112Y-76950744D02*
X147385446Y-77035410D01*
X147385446Y-77035410D02*
X147724112Y-77035410D01*
X147724112Y-77035410D02*
X147893446Y-76950744D01*
X147893446Y-76950744D02*
X147978112Y-76866077D01*
X147978112Y-76866077D02*
X148062779Y-76696744D01*
X148062779Y-76696744D02*
X148062779Y-76188744D01*
X148062779Y-76188744D02*
X147978112Y-76019410D01*
X147978112Y-76019410D02*
X147893446Y-75934744D01*
X147893446Y-75934744D02*
X147724112Y-75850077D01*
X147724112Y-75850077D02*
X147385446Y-75850077D01*
X147385446Y-75850077D02*
X147216112Y-75934744D01*
X146284779Y-76950744D02*
X146284779Y-77035410D01*
X146284779Y-77035410D02*
X146369445Y-77204744D01*
X146369445Y-77204744D02*
X146454112Y-77289410D01*
X143152111Y-77035410D02*
X143744778Y-76188744D01*
X144168111Y-77035410D02*
X144168111Y-75257410D01*
X144168111Y-75257410D02*
X143490778Y-75257410D01*
X143490778Y-75257410D02*
X143321445Y-75342077D01*
X143321445Y-75342077D02*
X143236778Y-75426744D01*
X143236778Y-75426744D02*
X143152111Y-75596077D01*
X143152111Y-75596077D02*
X143152111Y-75850077D01*
X143152111Y-75850077D02*
X143236778Y-76019410D01*
X143236778Y-76019410D02*
X143321445Y-76104077D01*
X143321445Y-76104077D02*
X143490778Y-76188744D01*
X143490778Y-76188744D02*
X144168111Y-76188744D01*
X141712778Y-76950744D02*
X141882111Y-77035410D01*
X141882111Y-77035410D02*
X142220778Y-77035410D01*
X142220778Y-77035410D02*
X142390111Y-76950744D01*
X142390111Y-76950744D02*
X142474778Y-76781410D01*
X142474778Y-76781410D02*
X142474778Y-76104077D01*
X142474778Y-76104077D02*
X142390111Y-75934744D01*
X142390111Y-75934744D02*
X142220778Y-75850077D01*
X142220778Y-75850077D02*
X141882111Y-75850077D01*
X141882111Y-75850077D02*
X141712778Y-75934744D01*
X141712778Y-75934744D02*
X141628111Y-76104077D01*
X141628111Y-76104077D02*
X141628111Y-76273410D01*
X141628111Y-76273410D02*
X142474778Y-76442744D01*
X141035445Y-75850077D02*
X140612111Y-77035410D01*
X140612111Y-77035410D02*
X140188778Y-75850077D01*
X139596111Y-75426744D02*
X139511444Y-75342077D01*
X139511444Y-75342077D02*
X139342111Y-75257410D01*
X139342111Y-75257410D02*
X138918778Y-75257410D01*
X138918778Y-75257410D02*
X138749444Y-75342077D01*
X138749444Y-75342077D02*
X138664778Y-75426744D01*
X138664778Y-75426744D02*
X138580111Y-75596077D01*
X138580111Y-75596077D02*
X138580111Y-75765410D01*
X138580111Y-75765410D02*
X138664778Y-76019410D01*
X138664778Y-76019410D02*
X139680778Y-77035410D01*
X139680778Y-77035410D02*
X138580111Y-77035410D01*
X169483449Y-79897890D02*
X169483449Y-78119890D01*
X169483449Y-78119890D02*
X168890783Y-79389890D01*
X168890783Y-79389890D02*
X168298116Y-78119890D01*
X168298116Y-78119890D02*
X168298116Y-79897890D01*
X166689449Y-79897890D02*
X166689449Y-78966557D01*
X166689449Y-78966557D02*
X166774116Y-78797224D01*
X166774116Y-78797224D02*
X166943449Y-78712557D01*
X166943449Y-78712557D02*
X167282116Y-78712557D01*
X167282116Y-78712557D02*
X167451449Y-78797224D01*
X166689449Y-79813224D02*
X166858783Y-79897890D01*
X166858783Y-79897890D02*
X167282116Y-79897890D01*
X167282116Y-79897890D02*
X167451449Y-79813224D01*
X167451449Y-79813224D02*
X167536116Y-79643890D01*
X167536116Y-79643890D02*
X167536116Y-79474557D01*
X167536116Y-79474557D02*
X167451449Y-79305224D01*
X167451449Y-79305224D02*
X167282116Y-79220557D01*
X167282116Y-79220557D02*
X166858783Y-79220557D01*
X166858783Y-79220557D02*
X166689449Y-79135890D01*
X165842782Y-79897890D02*
X165842782Y-78712557D01*
X165842782Y-79051224D02*
X165758116Y-78881890D01*
X165758116Y-78881890D02*
X165673449Y-78797224D01*
X165673449Y-78797224D02*
X165504116Y-78712557D01*
X165504116Y-78712557D02*
X165334782Y-78712557D01*
X164826782Y-79813224D02*
X164657449Y-79897890D01*
X164657449Y-79897890D02*
X164318782Y-79897890D01*
X164318782Y-79897890D02*
X164149449Y-79813224D01*
X164149449Y-79813224D02*
X164064782Y-79643890D01*
X164064782Y-79643890D02*
X164064782Y-79559224D01*
X164064782Y-79559224D02*
X164149449Y-79389890D01*
X164149449Y-79389890D02*
X164318782Y-79305224D01*
X164318782Y-79305224D02*
X164572782Y-79305224D01*
X164572782Y-79305224D02*
X164742115Y-79220557D01*
X164742115Y-79220557D02*
X164826782Y-79051224D01*
X164826782Y-79051224D02*
X164826782Y-78966557D01*
X164826782Y-78966557D02*
X164742115Y-78797224D01*
X164742115Y-78797224D02*
X164572782Y-78712557D01*
X164572782Y-78712557D02*
X164318782Y-78712557D01*
X164318782Y-78712557D02*
X164149449Y-78797224D01*
X160932115Y-79897890D02*
X161524782Y-79051224D01*
X161948115Y-79897890D02*
X161948115Y-78119890D01*
X161948115Y-78119890D02*
X161270782Y-78119890D01*
X161270782Y-78119890D02*
X161101449Y-78204557D01*
X161101449Y-78204557D02*
X161016782Y-78289224D01*
X161016782Y-78289224D02*
X160932115Y-78458557D01*
X160932115Y-78458557D02*
X160932115Y-78712557D01*
X160932115Y-78712557D02*
X161016782Y-78881890D01*
X161016782Y-78881890D02*
X161101449Y-78966557D01*
X161101449Y-78966557D02*
X161270782Y-79051224D01*
X161270782Y-79051224D02*
X161948115Y-79051224D01*
X159916115Y-79897890D02*
X160085449Y-79813224D01*
X160085449Y-79813224D02*
X160170115Y-79728557D01*
X160170115Y-79728557D02*
X160254782Y-79559224D01*
X160254782Y-79559224D02*
X160254782Y-79051224D01*
X160254782Y-79051224D02*
X160170115Y-78881890D01*
X160170115Y-78881890D02*
X160085449Y-78797224D01*
X160085449Y-78797224D02*
X159916115Y-78712557D01*
X159916115Y-78712557D02*
X159662115Y-78712557D01*
X159662115Y-78712557D02*
X159492782Y-78797224D01*
X159492782Y-78797224D02*
X159408115Y-78881890D01*
X159408115Y-78881890D02*
X159323449Y-79051224D01*
X159323449Y-79051224D02*
X159323449Y-79559224D01*
X159323449Y-79559224D02*
X159408115Y-79728557D01*
X159408115Y-79728557D02*
X159492782Y-79813224D01*
X159492782Y-79813224D02*
X159662115Y-79897890D01*
X159662115Y-79897890D02*
X159916115Y-79897890D01*
X158730782Y-78712557D02*
X158307448Y-79897890D01*
X158307448Y-79897890D02*
X157884115Y-78712557D01*
X156529448Y-79813224D02*
X156698781Y-79897890D01*
X156698781Y-79897890D02*
X157037448Y-79897890D01*
X157037448Y-79897890D02*
X157206781Y-79813224D01*
X157206781Y-79813224D02*
X157291448Y-79643890D01*
X157291448Y-79643890D02*
X157291448Y-78966557D01*
X157291448Y-78966557D02*
X157206781Y-78797224D01*
X157206781Y-78797224D02*
X157037448Y-78712557D01*
X157037448Y-78712557D02*
X156698781Y-78712557D01*
X156698781Y-78712557D02*
X156529448Y-78797224D01*
X156529448Y-78797224D02*
X156444781Y-78966557D01*
X156444781Y-78966557D02*
X156444781Y-79135890D01*
X156444781Y-79135890D02*
X157291448Y-79305224D01*
X155682781Y-79897890D02*
X155682781Y-78712557D01*
X155682781Y-79051224D02*
X155598115Y-78881890D01*
X155598115Y-78881890D02*
X155513448Y-78797224D01*
X155513448Y-78797224D02*
X155344115Y-78712557D01*
X155344115Y-78712557D02*
X155174781Y-78712557D01*
X153227447Y-79897890D02*
X153227447Y-78119890D01*
X153227447Y-78119890D02*
X152804114Y-78119890D01*
X152804114Y-78119890D02*
X152550114Y-78204557D01*
X152550114Y-78204557D02*
X152380781Y-78373890D01*
X152380781Y-78373890D02*
X152296114Y-78543224D01*
X152296114Y-78543224D02*
X152211447Y-78881890D01*
X152211447Y-78881890D02*
X152211447Y-79135890D01*
X152211447Y-79135890D02*
X152296114Y-79474557D01*
X152296114Y-79474557D02*
X152380781Y-79643890D01*
X152380781Y-79643890D02*
X152550114Y-79813224D01*
X152550114Y-79813224D02*
X152804114Y-79897890D01*
X152804114Y-79897890D02*
X153227447Y-79897890D01*
X150772114Y-79813224D02*
X150941447Y-79897890D01*
X150941447Y-79897890D02*
X151280114Y-79897890D01*
X151280114Y-79897890D02*
X151449447Y-79813224D01*
X151449447Y-79813224D02*
X151534114Y-79643890D01*
X151534114Y-79643890D02*
X151534114Y-78966557D01*
X151534114Y-78966557D02*
X151449447Y-78797224D01*
X151449447Y-78797224D02*
X151280114Y-78712557D01*
X151280114Y-78712557D02*
X150941447Y-78712557D01*
X150941447Y-78712557D02*
X150772114Y-78797224D01*
X150772114Y-78797224D02*
X150687447Y-78966557D01*
X150687447Y-78966557D02*
X150687447Y-79135890D01*
X150687447Y-79135890D02*
X151534114Y-79305224D01*
X150010114Y-79813224D02*
X149840781Y-79897890D01*
X149840781Y-79897890D02*
X149502114Y-79897890D01*
X149502114Y-79897890D02*
X149332781Y-79813224D01*
X149332781Y-79813224D02*
X149248114Y-79643890D01*
X149248114Y-79643890D02*
X149248114Y-79559224D01*
X149248114Y-79559224D02*
X149332781Y-79389890D01*
X149332781Y-79389890D02*
X149502114Y-79305224D01*
X149502114Y-79305224D02*
X149756114Y-79305224D01*
X149756114Y-79305224D02*
X149925447Y-79220557D01*
X149925447Y-79220557D02*
X150010114Y-79051224D01*
X150010114Y-79051224D02*
X150010114Y-78966557D01*
X150010114Y-78966557D02*
X149925447Y-78797224D01*
X149925447Y-78797224D02*
X149756114Y-78712557D01*
X149756114Y-78712557D02*
X149502114Y-78712557D01*
X149502114Y-78712557D02*
X149332781Y-78797224D01*
X148486114Y-79897890D02*
X148486114Y-78712557D01*
X148486114Y-78119890D02*
X148570781Y-78204557D01*
X148570781Y-78204557D02*
X148486114Y-78289224D01*
X148486114Y-78289224D02*
X148401448Y-78204557D01*
X148401448Y-78204557D02*
X148486114Y-78119890D01*
X148486114Y-78119890D02*
X148486114Y-78289224D01*
X146877447Y-78712557D02*
X146877447Y-80151890D01*
X146877447Y-80151890D02*
X146962114Y-80321224D01*
X146962114Y-80321224D02*
X147046781Y-80405890D01*
X147046781Y-80405890D02*
X147216114Y-80490557D01*
X147216114Y-80490557D02*
X147470114Y-80490557D01*
X147470114Y-80490557D02*
X147639447Y-80405890D01*
X146877447Y-79813224D02*
X147046781Y-79897890D01*
X147046781Y-79897890D02*
X147385447Y-79897890D01*
X147385447Y-79897890D02*
X147554781Y-79813224D01*
X147554781Y-79813224D02*
X147639447Y-79728557D01*
X147639447Y-79728557D02*
X147724114Y-79559224D01*
X147724114Y-79559224D02*
X147724114Y-79051224D01*
X147724114Y-79051224D02*
X147639447Y-78881890D01*
X147639447Y-78881890D02*
X147554781Y-78797224D01*
X147554781Y-78797224D02*
X147385447Y-78712557D01*
X147385447Y-78712557D02*
X147046781Y-78712557D01*
X147046781Y-78712557D02*
X146877447Y-78797224D01*
X146030780Y-78712557D02*
X146030780Y-79897890D01*
X146030780Y-78881890D02*
X145946114Y-78797224D01*
X145946114Y-78797224D02*
X145776780Y-78712557D01*
X145776780Y-78712557D02*
X145522780Y-78712557D01*
X145522780Y-78712557D02*
X145353447Y-78797224D01*
X145353447Y-78797224D02*
X145268780Y-78966557D01*
X145268780Y-78966557D02*
X145268780Y-79897890D01*
X143321446Y-78119890D02*
X142305446Y-78119890D01*
X142813446Y-79897890D02*
X142813446Y-78119890D01*
X141035446Y-79813224D02*
X141204779Y-79897890D01*
X141204779Y-79897890D02*
X141543446Y-79897890D01*
X141543446Y-79897890D02*
X141712779Y-79813224D01*
X141712779Y-79813224D02*
X141797446Y-79643890D01*
X141797446Y-79643890D02*
X141797446Y-78966557D01*
X141797446Y-78966557D02*
X141712779Y-78797224D01*
X141712779Y-78797224D02*
X141543446Y-78712557D01*
X141543446Y-78712557D02*
X141204779Y-78712557D01*
X141204779Y-78712557D02*
X141035446Y-78797224D01*
X141035446Y-78797224D02*
X140950779Y-78966557D01*
X140950779Y-78966557D02*
X140950779Y-79135890D01*
X140950779Y-79135890D02*
X141797446Y-79305224D01*
X139426779Y-79897890D02*
X139426779Y-78966557D01*
X139426779Y-78966557D02*
X139511446Y-78797224D01*
X139511446Y-78797224D02*
X139680779Y-78712557D01*
X139680779Y-78712557D02*
X140019446Y-78712557D01*
X140019446Y-78712557D02*
X140188779Y-78797224D01*
X139426779Y-79813224D02*
X139596113Y-79897890D01*
X139596113Y-79897890D02*
X140019446Y-79897890D01*
X140019446Y-79897890D02*
X140188779Y-79813224D01*
X140188779Y-79813224D02*
X140273446Y-79643890D01*
X140273446Y-79643890D02*
X140273446Y-79474557D01*
X140273446Y-79474557D02*
X140188779Y-79305224D01*
X140188779Y-79305224D02*
X140019446Y-79220557D01*
X140019446Y-79220557D02*
X139596113Y-79220557D01*
X139596113Y-79220557D02*
X139426779Y-79135890D01*
X138580112Y-79897890D02*
X138580112Y-78712557D01*
X138580112Y-78881890D02*
X138495446Y-78797224D01*
X138495446Y-78797224D02*
X138326112Y-78712557D01*
X138326112Y-78712557D02*
X138072112Y-78712557D01*
X138072112Y-78712557D02*
X137902779Y-78797224D01*
X137902779Y-78797224D02*
X137818112Y-78966557D01*
X137818112Y-78966557D02*
X137818112Y-79897890D01*
X137818112Y-78966557D02*
X137733446Y-78797224D01*
X137733446Y-78797224D02*
X137564112Y-78712557D01*
X137564112Y-78712557D02*
X137310112Y-78712557D01*
X137310112Y-78712557D02*
X137140779Y-78797224D01*
X137140779Y-78797224D02*
X137056112Y-78966557D01*
X137056112Y-78966557D02*
X137056112Y-79897890D01*
X169483449Y-82760370D02*
X169483449Y-80982370D01*
X169483449Y-80982370D02*
X168890783Y-82252370D01*
X168890783Y-82252370D02*
X168298116Y-80982370D01*
X168298116Y-80982370D02*
X168298116Y-82760370D01*
X167451449Y-82760370D02*
X167451449Y-81575037D01*
X167451449Y-80982370D02*
X167536116Y-81067037D01*
X167536116Y-81067037D02*
X167451449Y-81151704D01*
X167451449Y-81151704D02*
X167366783Y-81067037D01*
X167366783Y-81067037D02*
X167451449Y-80982370D01*
X167451449Y-80982370D02*
X167451449Y-81151704D01*
X166689449Y-82675704D02*
X166520116Y-82760370D01*
X166520116Y-82760370D02*
X166181449Y-82760370D01*
X166181449Y-82760370D02*
X166012116Y-82675704D01*
X166012116Y-82675704D02*
X165927449Y-82506370D01*
X165927449Y-82506370D02*
X165927449Y-82421704D01*
X165927449Y-82421704D02*
X166012116Y-82252370D01*
X166012116Y-82252370D02*
X166181449Y-82167704D01*
X166181449Y-82167704D02*
X166435449Y-82167704D01*
X166435449Y-82167704D02*
X166604782Y-82083037D01*
X166604782Y-82083037D02*
X166689449Y-81913704D01*
X166689449Y-81913704D02*
X166689449Y-81829037D01*
X166689449Y-81829037D02*
X166604782Y-81659704D01*
X166604782Y-81659704D02*
X166435449Y-81575037D01*
X166435449Y-81575037D02*
X166181449Y-81575037D01*
X166181449Y-81575037D02*
X166012116Y-81659704D01*
X165250116Y-82675704D02*
X165080783Y-82760370D01*
X165080783Y-82760370D02*
X164742116Y-82760370D01*
X164742116Y-82760370D02*
X164572783Y-82675704D01*
X164572783Y-82675704D02*
X164488116Y-82506370D01*
X164488116Y-82506370D02*
X164488116Y-82421704D01*
X164488116Y-82421704D02*
X164572783Y-82252370D01*
X164572783Y-82252370D02*
X164742116Y-82167704D01*
X164742116Y-82167704D02*
X164996116Y-82167704D01*
X164996116Y-82167704D02*
X165165449Y-82083037D01*
X165165449Y-82083037D02*
X165250116Y-81913704D01*
X165250116Y-81913704D02*
X165250116Y-81829037D01*
X165250116Y-81829037D02*
X165165449Y-81659704D01*
X165165449Y-81659704D02*
X164996116Y-81575037D01*
X164996116Y-81575037D02*
X164742116Y-81575037D01*
X164742116Y-81575037D02*
X164572783Y-81659704D01*
X163472116Y-82760370D02*
X163641450Y-82675704D01*
X163641450Y-82675704D02*
X163726116Y-82591037D01*
X163726116Y-82591037D02*
X163810783Y-82421704D01*
X163810783Y-82421704D02*
X163810783Y-81913704D01*
X163810783Y-81913704D02*
X163726116Y-81744370D01*
X163726116Y-81744370D02*
X163641450Y-81659704D01*
X163641450Y-81659704D02*
X163472116Y-81575037D01*
X163472116Y-81575037D02*
X163218116Y-81575037D01*
X163218116Y-81575037D02*
X163048783Y-81659704D01*
X163048783Y-81659704D02*
X162964116Y-81744370D01*
X162964116Y-81744370D02*
X162879450Y-81913704D01*
X162879450Y-81913704D02*
X162879450Y-82421704D01*
X162879450Y-82421704D02*
X162964116Y-82591037D01*
X162964116Y-82591037D02*
X163048783Y-82675704D01*
X163048783Y-82675704D02*
X163218116Y-82760370D01*
X163218116Y-82760370D02*
X163472116Y-82760370D01*
X161355449Y-81575037D02*
X161355449Y-82760370D01*
X162117449Y-81575037D02*
X162117449Y-82506370D01*
X162117449Y-82506370D02*
X162032783Y-82675704D01*
X162032783Y-82675704D02*
X161863449Y-82760370D01*
X161863449Y-82760370D02*
X161609449Y-82760370D01*
X161609449Y-82760370D02*
X161440116Y-82675704D01*
X161440116Y-82675704D02*
X161355449Y-82591037D01*
X160508782Y-82760370D02*
X160508782Y-81575037D01*
X160508782Y-81913704D02*
X160424116Y-81744370D01*
X160424116Y-81744370D02*
X160339449Y-81659704D01*
X160339449Y-81659704D02*
X160170116Y-81575037D01*
X160170116Y-81575037D02*
X160000782Y-81575037D01*
X159408115Y-82760370D02*
X159408115Y-81575037D01*
X159408115Y-80982370D02*
X159492782Y-81067037D01*
X159492782Y-81067037D02*
X159408115Y-81151704D01*
X159408115Y-81151704D02*
X159323449Y-81067037D01*
X159323449Y-81067037D02*
X159408115Y-80982370D01*
X159408115Y-80982370D02*
X159408115Y-81151704D01*
X157291448Y-82675704D02*
X157037448Y-82760370D01*
X157037448Y-82760370D02*
X156614115Y-82760370D01*
X156614115Y-82760370D02*
X156444781Y-82675704D01*
X156444781Y-82675704D02*
X156360115Y-82591037D01*
X156360115Y-82591037D02*
X156275448Y-82421704D01*
X156275448Y-82421704D02*
X156275448Y-82252370D01*
X156275448Y-82252370D02*
X156360115Y-82083037D01*
X156360115Y-82083037D02*
X156444781Y-81998370D01*
X156444781Y-81998370D02*
X156614115Y-81913704D01*
X156614115Y-81913704D02*
X156952781Y-81829037D01*
X156952781Y-81829037D02*
X157122115Y-81744370D01*
X157122115Y-81744370D02*
X157206781Y-81659704D01*
X157206781Y-81659704D02*
X157291448Y-81490370D01*
X157291448Y-81490370D02*
X157291448Y-81321037D01*
X157291448Y-81321037D02*
X157206781Y-81151704D01*
X157206781Y-81151704D02*
X157122115Y-81067037D01*
X157122115Y-81067037D02*
X156952781Y-80982370D01*
X156952781Y-80982370D02*
X156529448Y-80982370D01*
X156529448Y-80982370D02*
X156275448Y-81067037D01*
X154074115Y-82760370D02*
X154158782Y-82760370D01*
X154158782Y-82760370D02*
X154328115Y-82675704D01*
X154328115Y-82675704D02*
X154582115Y-82421704D01*
X154582115Y-82421704D02*
X155005448Y-81913704D01*
X155005448Y-81913704D02*
X155174782Y-81659704D01*
X155174782Y-81659704D02*
X155259448Y-81405704D01*
X155259448Y-81405704D02*
X155259448Y-81236370D01*
X155259448Y-81236370D02*
X155174782Y-81067037D01*
X155174782Y-81067037D02*
X155005448Y-80982370D01*
X155005448Y-80982370D02*
X154920782Y-80982370D01*
X154920782Y-80982370D02*
X154751448Y-81067037D01*
X154751448Y-81067037D02*
X154666782Y-81236370D01*
X154666782Y-81236370D02*
X154666782Y-81321037D01*
X154666782Y-81321037D02*
X154751448Y-81490370D01*
X154751448Y-81490370D02*
X154836115Y-81575037D01*
X154836115Y-81575037D02*
X155344115Y-81913704D01*
X155344115Y-81913704D02*
X155428782Y-81998370D01*
X155428782Y-81998370D02*
X155513448Y-82167704D01*
X155513448Y-82167704D02*
X155513448Y-82421704D01*
X155513448Y-82421704D02*
X155428782Y-82591037D01*
X155428782Y-82591037D02*
X155344115Y-82675704D01*
X155344115Y-82675704D02*
X155174782Y-82760370D01*
X155174782Y-82760370D02*
X154920782Y-82760370D01*
X154920782Y-82760370D02*
X154751448Y-82675704D01*
X154751448Y-82675704D02*
X154666782Y-82591037D01*
X154666782Y-82591037D02*
X154412782Y-82252370D01*
X154412782Y-82252370D02*
X154328115Y-81998370D01*
X154328115Y-81998370D02*
X154328115Y-81829037D01*
X153566115Y-80982370D02*
X152550115Y-80982370D01*
X153058115Y-82760370D02*
X153058115Y-80982370D01*
X151872782Y-82675704D02*
X151872782Y-82760370D01*
X151872782Y-82760370D02*
X151957448Y-82929704D01*
X151957448Y-82929704D02*
X152042115Y-83014370D01*
X149840781Y-81151704D02*
X149756114Y-81067037D01*
X149756114Y-81067037D02*
X149586781Y-80982370D01*
X149586781Y-80982370D02*
X149163448Y-80982370D01*
X149163448Y-80982370D02*
X148994114Y-81067037D01*
X148994114Y-81067037D02*
X148909448Y-81151704D01*
X148909448Y-81151704D02*
X148824781Y-81321037D01*
X148824781Y-81321037D02*
X148824781Y-81490370D01*
X148824781Y-81490370D02*
X148909448Y-81744370D01*
X148909448Y-81744370D02*
X149925448Y-82760370D01*
X149925448Y-82760370D02*
X148824781Y-82760370D01*
X147724115Y-80982370D02*
X147554781Y-80982370D01*
X147554781Y-80982370D02*
X147385448Y-81067037D01*
X147385448Y-81067037D02*
X147300781Y-81151704D01*
X147300781Y-81151704D02*
X147216115Y-81321037D01*
X147216115Y-81321037D02*
X147131448Y-81659704D01*
X147131448Y-81659704D02*
X147131448Y-82083037D01*
X147131448Y-82083037D02*
X147216115Y-82421704D01*
X147216115Y-82421704D02*
X147300781Y-82591037D01*
X147300781Y-82591037D02*
X147385448Y-82675704D01*
X147385448Y-82675704D02*
X147554781Y-82760370D01*
X147554781Y-82760370D02*
X147724115Y-82760370D01*
X147724115Y-82760370D02*
X147893448Y-82675704D01*
X147893448Y-82675704D02*
X147978115Y-82591037D01*
X147978115Y-82591037D02*
X148062781Y-82421704D01*
X148062781Y-82421704D02*
X148147448Y-82083037D01*
X148147448Y-82083037D02*
X148147448Y-81659704D01*
X148147448Y-81659704D02*
X148062781Y-81321037D01*
X148062781Y-81321037D02*
X147978115Y-81151704D01*
X147978115Y-81151704D02*
X147893448Y-81067037D01*
X147893448Y-81067037D02*
X147724115Y-80982370D01*
X146454115Y-81151704D02*
X146369448Y-81067037D01*
X146369448Y-81067037D02*
X146200115Y-80982370D01*
X146200115Y-80982370D02*
X145776782Y-80982370D01*
X145776782Y-80982370D02*
X145607448Y-81067037D01*
X145607448Y-81067037D02*
X145522782Y-81151704D01*
X145522782Y-81151704D02*
X145438115Y-81321037D01*
X145438115Y-81321037D02*
X145438115Y-81490370D01*
X145438115Y-81490370D02*
X145522782Y-81744370D01*
X145522782Y-81744370D02*
X146538782Y-82760370D01*
X146538782Y-82760370D02*
X145438115Y-82760370D01*
X143914115Y-80982370D02*
X144252782Y-80982370D01*
X144252782Y-80982370D02*
X144422115Y-81067037D01*
X144422115Y-81067037D02*
X144506782Y-81151704D01*
X144506782Y-81151704D02*
X144676115Y-81405704D01*
X144676115Y-81405704D02*
X144760782Y-81744370D01*
X144760782Y-81744370D02*
X144760782Y-82421704D01*
X144760782Y-82421704D02*
X144676115Y-82591037D01*
X144676115Y-82591037D02*
X144591449Y-82675704D01*
X144591449Y-82675704D02*
X144422115Y-82760370D01*
X144422115Y-82760370D02*
X144083449Y-82760370D01*
X144083449Y-82760370D02*
X143914115Y-82675704D01*
X143914115Y-82675704D02*
X143829449Y-82591037D01*
X143829449Y-82591037D02*
X143744782Y-82421704D01*
X143744782Y-82421704D02*
X143744782Y-81998370D01*
X143744782Y-81998370D02*
X143829449Y-81829037D01*
X143829449Y-81829037D02*
X143914115Y-81744370D01*
X143914115Y-81744370D02*
X144083449Y-81659704D01*
X144083449Y-81659704D02*
X144422115Y-81659704D01*
X144422115Y-81659704D02*
X144591449Y-81744370D01*
X144591449Y-81744370D02*
X144676115Y-81829037D01*
X144676115Y-81829037D02*
X144760782Y-81998370D01*
X168552116Y-83929517D02*
X168721449Y-83844850D01*
X168721449Y-83844850D02*
X168975449Y-83844850D01*
X168975449Y-83844850D02*
X169229449Y-83929517D01*
X169229449Y-83929517D02*
X169398783Y-84098850D01*
X169398783Y-84098850D02*
X169483449Y-84268184D01*
X169483449Y-84268184D02*
X169568116Y-84606850D01*
X169568116Y-84606850D02*
X169568116Y-84860850D01*
X169568116Y-84860850D02*
X169483449Y-85199517D01*
X169483449Y-85199517D02*
X169398783Y-85368850D01*
X169398783Y-85368850D02*
X169229449Y-85538184D01*
X169229449Y-85538184D02*
X168975449Y-85622850D01*
X168975449Y-85622850D02*
X168806116Y-85622850D01*
X168806116Y-85622850D02*
X168552116Y-85538184D01*
X168552116Y-85538184D02*
X168467449Y-85453517D01*
X168467449Y-85453517D02*
X168467449Y-84860850D01*
X168467449Y-84860850D02*
X168806116Y-84860850D01*
X166943449Y-85622850D02*
X166943449Y-84691517D01*
X166943449Y-84691517D02*
X167028116Y-84522184D01*
X167028116Y-84522184D02*
X167197449Y-84437517D01*
X167197449Y-84437517D02*
X167536116Y-84437517D01*
X167536116Y-84437517D02*
X167705449Y-84522184D01*
X166943449Y-85538184D02*
X167112783Y-85622850D01*
X167112783Y-85622850D02*
X167536116Y-85622850D01*
X167536116Y-85622850D02*
X167705449Y-85538184D01*
X167705449Y-85538184D02*
X167790116Y-85368850D01*
X167790116Y-85368850D02*
X167790116Y-85199517D01*
X167790116Y-85199517D02*
X167705449Y-85030184D01*
X167705449Y-85030184D02*
X167536116Y-84945517D01*
X167536116Y-84945517D02*
X167112783Y-84945517D01*
X167112783Y-84945517D02*
X166943449Y-84860850D01*
X165334782Y-84437517D02*
X165334782Y-85876850D01*
X165334782Y-85876850D02*
X165419449Y-86046184D01*
X165419449Y-86046184D02*
X165504116Y-86130850D01*
X165504116Y-86130850D02*
X165673449Y-86215517D01*
X165673449Y-86215517D02*
X165927449Y-86215517D01*
X165927449Y-86215517D02*
X166096782Y-86130850D01*
X165334782Y-85538184D02*
X165504116Y-85622850D01*
X165504116Y-85622850D02*
X165842782Y-85622850D01*
X165842782Y-85622850D02*
X166012116Y-85538184D01*
X166012116Y-85538184D02*
X166096782Y-85453517D01*
X166096782Y-85453517D02*
X166181449Y-85284184D01*
X166181449Y-85284184D02*
X166181449Y-84776184D01*
X166181449Y-84776184D02*
X166096782Y-84606850D01*
X166096782Y-84606850D02*
X166012116Y-84522184D01*
X166012116Y-84522184D02*
X165842782Y-84437517D01*
X165842782Y-84437517D02*
X165504116Y-84437517D01*
X165504116Y-84437517D02*
X165334782Y-84522184D01*
X163810782Y-85538184D02*
X163980115Y-85622850D01*
X163980115Y-85622850D02*
X164318782Y-85622850D01*
X164318782Y-85622850D02*
X164488115Y-85538184D01*
X164488115Y-85538184D02*
X164572782Y-85368850D01*
X164572782Y-85368850D02*
X164572782Y-84691517D01*
X164572782Y-84691517D02*
X164488115Y-84522184D01*
X164488115Y-84522184D02*
X164318782Y-84437517D01*
X164318782Y-84437517D02*
X163980115Y-84437517D01*
X163980115Y-84437517D02*
X163810782Y-84522184D01*
X163810782Y-84522184D02*
X163726115Y-84691517D01*
X163726115Y-84691517D02*
X163726115Y-84860850D01*
X163726115Y-84860850D02*
X164572782Y-85030184D01*
X161863448Y-83844850D02*
X160847448Y-83844850D01*
X161355448Y-85622850D02*
X161355448Y-83844850D01*
X160254781Y-85622850D02*
X160254781Y-84437517D01*
X160254781Y-84776184D02*
X160170115Y-84606850D01*
X160170115Y-84606850D02*
X160085448Y-84522184D01*
X160085448Y-84522184D02*
X159916115Y-84437517D01*
X159916115Y-84437517D02*
X159746781Y-84437517D01*
X158392114Y-85622850D02*
X158392114Y-84691517D01*
X158392114Y-84691517D02*
X158476781Y-84522184D01*
X158476781Y-84522184D02*
X158646114Y-84437517D01*
X158646114Y-84437517D02*
X158984781Y-84437517D01*
X158984781Y-84437517D02*
X159154114Y-84522184D01*
X158392114Y-85538184D02*
X158561448Y-85622850D01*
X158561448Y-85622850D02*
X158984781Y-85622850D01*
X158984781Y-85622850D02*
X159154114Y-85538184D01*
X159154114Y-85538184D02*
X159238781Y-85368850D01*
X159238781Y-85368850D02*
X159238781Y-85199517D01*
X159238781Y-85199517D02*
X159154114Y-85030184D01*
X159154114Y-85030184D02*
X158984781Y-84945517D01*
X158984781Y-84945517D02*
X158561448Y-84945517D01*
X158561448Y-84945517D02*
X158392114Y-84860850D01*
X157545447Y-85622850D02*
X157545447Y-84437517D01*
X157545447Y-84606850D02*
X157460781Y-84522184D01*
X157460781Y-84522184D02*
X157291447Y-84437517D01*
X157291447Y-84437517D02*
X157037447Y-84437517D01*
X157037447Y-84437517D02*
X156868114Y-84522184D01*
X156868114Y-84522184D02*
X156783447Y-84691517D01*
X156783447Y-84691517D02*
X156783447Y-85622850D01*
X156783447Y-84691517D02*
X156698781Y-84522184D01*
X156698781Y-84522184D02*
X156529447Y-84437517D01*
X156529447Y-84437517D02*
X156275447Y-84437517D01*
X156275447Y-84437517D02*
X156106114Y-84522184D01*
X156106114Y-84522184D02*
X156021447Y-84691517D01*
X156021447Y-84691517D02*
X156021447Y-85622850D01*
X155174780Y-85622850D02*
X155174780Y-84437517D01*
X155174780Y-84606850D02*
X155090114Y-84522184D01*
X155090114Y-84522184D02*
X154920780Y-84437517D01*
X154920780Y-84437517D02*
X154666780Y-84437517D01*
X154666780Y-84437517D02*
X154497447Y-84522184D01*
X154497447Y-84522184D02*
X154412780Y-84691517D01*
X154412780Y-84691517D02*
X154412780Y-85622850D01*
X154412780Y-84691517D02*
X154328114Y-84522184D01*
X154328114Y-84522184D02*
X154158780Y-84437517D01*
X154158780Y-84437517D02*
X153904780Y-84437517D01*
X153904780Y-84437517D02*
X153735447Y-84522184D01*
X153735447Y-84522184D02*
X153650780Y-84691517D01*
X153650780Y-84691517D02*
X153650780Y-85622850D01*
X152126780Y-85538184D02*
X152296113Y-85622850D01*
X152296113Y-85622850D02*
X152634780Y-85622850D01*
X152634780Y-85622850D02*
X152804113Y-85538184D01*
X152804113Y-85538184D02*
X152888780Y-85368850D01*
X152888780Y-85368850D02*
X152888780Y-84691517D01*
X152888780Y-84691517D02*
X152804113Y-84522184D01*
X152804113Y-84522184D02*
X152634780Y-84437517D01*
X152634780Y-84437517D02*
X152296113Y-84437517D01*
X152296113Y-84437517D02*
X152126780Y-84522184D01*
X152126780Y-84522184D02*
X152042113Y-84691517D01*
X152042113Y-84691517D02*
X152042113Y-84860850D01*
X152042113Y-84860850D02*
X152888780Y-85030184D01*
X151026113Y-85622850D02*
X151195447Y-85538184D01*
X151195447Y-85538184D02*
X151280113Y-85368850D01*
X151280113Y-85368850D02*
X151280113Y-83844850D01*
X150094780Y-85622850D02*
X150264114Y-85538184D01*
X150264114Y-85538184D02*
X150348780Y-85368850D01*
X150348780Y-85368850D02*
X150348780Y-83844850D01*
X149332781Y-85538184D02*
X149332781Y-85622850D01*
X149332781Y-85622850D02*
X149417447Y-85792184D01*
X149417447Y-85792184D02*
X149502114Y-85876850D01*
X147300780Y-85114850D02*
X146454113Y-85114850D01*
X147470113Y-85622850D02*
X146877447Y-83844850D01*
X146877447Y-83844850D02*
X146284780Y-85622850D01*
X145692113Y-85622850D02*
X145692113Y-84437517D01*
X145692113Y-84776184D02*
X145607447Y-84606850D01*
X145607447Y-84606850D02*
X145522780Y-84522184D01*
X145522780Y-84522184D02*
X145353447Y-84437517D01*
X145353447Y-84437517D02*
X145184113Y-84437517D01*
X144337446Y-85622850D02*
X144506780Y-85538184D01*
X144506780Y-85538184D02*
X144591446Y-85453517D01*
X144591446Y-85453517D02*
X144676113Y-85284184D01*
X144676113Y-85284184D02*
X144676113Y-84776184D01*
X144676113Y-84776184D02*
X144591446Y-84606850D01*
X144591446Y-84606850D02*
X144506780Y-84522184D01*
X144506780Y-84522184D02*
X144337446Y-84437517D01*
X144337446Y-84437517D02*
X144083446Y-84437517D01*
X144083446Y-84437517D02*
X143914113Y-84522184D01*
X143914113Y-84522184D02*
X143829446Y-84606850D01*
X143829446Y-84606850D02*
X143744780Y-84776184D01*
X143744780Y-84776184D02*
X143744780Y-85284184D01*
X143744780Y-85284184D02*
X143829446Y-85453517D01*
X143829446Y-85453517D02*
X143914113Y-85538184D01*
X143914113Y-85538184D02*
X144083446Y-85622850D01*
X144083446Y-85622850D02*
X144337446Y-85622850D01*
X142982779Y-84437517D02*
X142982779Y-85622850D01*
X142982779Y-84606850D02*
X142898113Y-84522184D01*
X142898113Y-84522184D02*
X142728779Y-84437517D01*
X142728779Y-84437517D02*
X142474779Y-84437517D01*
X142474779Y-84437517D02*
X142305446Y-84522184D01*
X142305446Y-84522184D02*
X142220779Y-84691517D01*
X142220779Y-84691517D02*
X142220779Y-85622850D01*
X140019445Y-85622850D02*
X140019445Y-83844850D01*
X139003445Y-85622850D02*
X139765445Y-84606850D01*
X139003445Y-83844850D02*
X140019445Y-84860850D01*
X137479445Y-85622850D02*
X137479445Y-84691517D01*
X137479445Y-84691517D02*
X137564112Y-84522184D01*
X137564112Y-84522184D02*
X137733445Y-84437517D01*
X137733445Y-84437517D02*
X138072112Y-84437517D01*
X138072112Y-84437517D02*
X138241445Y-84522184D01*
X137479445Y-85538184D02*
X137648779Y-85622850D01*
X137648779Y-85622850D02*
X138072112Y-85622850D01*
X138072112Y-85622850D02*
X138241445Y-85538184D01*
X138241445Y-85538184D02*
X138326112Y-85368850D01*
X138326112Y-85368850D02*
X138326112Y-85199517D01*
X138326112Y-85199517D02*
X138241445Y-85030184D01*
X138241445Y-85030184D02*
X138072112Y-84945517D01*
X138072112Y-84945517D02*
X137648779Y-84945517D01*
X137648779Y-84945517D02*
X137479445Y-84860850D01*
X136886778Y-84437517D02*
X136209445Y-84437517D01*
X136632778Y-83844850D02*
X136632778Y-85368850D01*
X136632778Y-85368850D02*
X136548112Y-85538184D01*
X136548112Y-85538184D02*
X136378778Y-85622850D01*
X136378778Y-85622850D02*
X136209445Y-85622850D01*
X135362778Y-85622850D02*
X135532112Y-85538184D01*
X135532112Y-85538184D02*
X135616778Y-85453517D01*
X135616778Y-85453517D02*
X135701445Y-85284184D01*
X135701445Y-85284184D02*
X135701445Y-84776184D01*
X135701445Y-84776184D02*
X135616778Y-84606850D01*
X135616778Y-84606850D02*
X135532112Y-84522184D01*
X135532112Y-84522184D02*
X135362778Y-84437517D01*
X135362778Y-84437517D02*
X135108778Y-84437517D01*
X135108778Y-84437517D02*
X134939445Y-84522184D01*
X134939445Y-84522184D02*
X134854778Y-84606850D01*
X134854778Y-84606850D02*
X134770112Y-84776184D01*
X134770112Y-84776184D02*
X134770112Y-85284184D01*
X134770112Y-85284184D02*
X134854778Y-85453517D01*
X134854778Y-85453517D02*
X134939445Y-85538184D01*
X134939445Y-85538184D02*
X135108778Y-85622850D01*
X135108778Y-85622850D02*
X135362778Y-85622850D01*
X134008111Y-84437517D02*
X134008111Y-85622850D01*
X134008111Y-84606850D02*
X133923445Y-84522184D01*
X133923445Y-84522184D02*
X133754111Y-84437517D01*
X133754111Y-84437517D02*
X133500111Y-84437517D01*
X133500111Y-84437517D02*
X133330778Y-84522184D01*
X133330778Y-84522184D02*
X133246111Y-84691517D01*
X133246111Y-84691517D02*
X133246111Y-85622850D01*
D11*
%TO.C,J3*%
X181949449Y-75323700D02*
G75*
G02*
X181187449Y-75323700I-381000J0D01*
G01*
X181187449Y-75323700D02*
G75*
G02*
X181949449Y-75323700I381000J0D01*
G01*
%TO.C,J2*%
X181991000Y-61760100D02*
G75*
G02*
X181229000Y-61760100I-381000J0D01*
G01*
X181229000Y-61760100D02*
G75*
G02*
X181991000Y-61760100I381000J0D01*
G01*
%TD*%
M02*
