M48
; DRILL file {KiCad 9.0.8-9.0.8~ubuntu22.04.1} date 2026-03-23T11:44:57-0500
; FORMAT={-:-/ absolute / inch / decimal}
; #@! TF.CreationDate,2026-03-23T11:44:57-05:00
; #@! TF.GenerationSoftware,Kicad,Pcbnew,9.0.8-9.0.8~ubuntu22.04.1
; #@! TF.FileFunction,Plated,1,2,PTH
FMAT,2
INCH
; #@! TA.AperFunction,Plated,PTH,ViaDrill
T1C0.0118
; #@! TA.AperFunction,Plated,PTH,ComponentDrill
T2C0.0197
; #@! TA.AperFunction,Plated,PTH,ComponentDrill
T3C0.0350
; #@! TA.AperFunction,Plated,PTH,ComponentDrill
T4C0.0354
; #@! TA.AperFunction,Plated,PTH,ComponentDrill
T5C0.0394
; #@! TA.AperFunction,Plated,PTH,ComponentDrill
T6C0.0730
; #@! TA.AperFunction,Plated,PTH,ComponentDrill
T7C0.1160
%
G90
G05
T1
X4.36Y-2.78
X4.4Y-2.7
X4.54Y-3.74
X4.6Y-2.6
X4.68Y-3.74
X4.68Y-3.86
X4.8Y-2.2
X4.8Y-2.4
X4.8Y-2.6
X4.8Y-2.9
X4.8041Y-3.05
X4.84Y-3.74
X4.84Y-3.86
X4.94Y-3.74
X4.94Y-3.86
X5.0278Y-3.13
X5.0278Y-3.31
X5.0278Y-3.48
X5.06Y-3.74
X5.06Y-3.86
X5.07Y-3.09
X5.07Y-3.38
X5.09Y-3.05
X5.0936Y-3.33
X5.1Y-2.2
X5.1Y-2.4
X5.1Y-2.9
X5.1172Y-3.23
X5.12Y-2.54
X5.12Y-2.6148
X5.12Y-3.07
X5.1436Y-3.1
X5.1436Y-3.195
X5.1464Y-3.3564
X5.1464Y-3.43
X5.1464Y-3.53
X5.17Y-3.3
X5.17Y-3.4036
X5.17Y-3.57
X5.18Y-3.74
X5.18Y-3.86
X5.2232Y-3.195
X5.2232Y-3.48
X5.28Y-3.74
X5.28Y-3.86
X5.36Y-3.54
X5.38Y-2.65
X5.38Y-3.48
X5.4Y-3.74
X5.4Y-3.86
X5.41Y-3.56
X5.46Y-2.752
X5.46Y-3.52
X5.52Y-3.74
X5.52Y-3.86
X5.56Y-2.75
X5.6Y-2.9
X5.6Y-3.1
X5.6Y-3.3
X5.6Y-3.5
X5.62Y-3.72
X5.62Y-3.86
X5.66Y-2.75
X5.7Y-2.9
X5.7Y-3.1
X5.7Y-3.3
X5.7Y-3.5
X5.76Y-2.75
X5.78Y-3.72
X5.78Y-3.86
X5.81Y-3.46
X5.865Y-3.865
X5.918Y-3.804
X5.958Y-2.75
X5.96Y-3.66
X6.0Y-2.9
X6.0Y-3.1
X6.0Y-3.3
X6.0Y-3.5
X6.026Y-3.804
X6.06Y-2.75
X6.06Y-3.66
X6.1Y-3.5
X6.126Y-3.804
X6.13Y-2.78
X6.13Y-3.3341
X6.16Y-3.66
X6.226Y-3.804
X6.2351Y-3.31
X6.236Y-3.16
X6.236Y-3.23
X6.26Y-3.66
X6.304Y-3.16
X6.304Y-3.23
X6.324Y-3.804
X6.35Y-2.9
X6.35Y-3.0
X6.36Y-3.66
X6.4Y-2.95
X6.4Y-3.05
X6.428Y-3.804
X6.43Y-3.31
X6.43Y-3.41
X6.45Y-2.9
X6.45Y-3.0
X6.46Y-3.66
X6.5Y-2.95
X6.5Y-3.05
X6.532Y-3.804
X6.54Y-3.1681
X6.547Y-3.315
X6.547Y-3.365
X6.547Y-3.415
X6.56Y-3.66
X6.624Y-3.314
X6.626Y-3.416
X6.66Y-2.8874
X6.66Y-2.9771
X6.692Y-3.22
X6.692Y-3.314
X6.694Y-3.118
X6.694Y-3.416
X6.744Y-3.22
X6.753Y-3.315
X6.753Y-3.365
X6.753Y-3.415
X6.753Y-3.465
X6.792Y-3.074
X6.794Y-2.98
X6.8Y-2.2
X6.8Y-2.4
X6.8Y-3.2
X6.8Y-3.24
X6.8Y-3.62
X6.86Y-3.14
X6.86Y-3.18
X6.86Y-3.22
X6.9Y-3.24
X6.9Y-3.62
X6.96Y-3.24
X7.02Y-3.62
X7.02Y-3.76
X7.02Y-3.88
X7.1Y-2.2
X7.1Y-2.4
X7.25Y-3.99
X7.26Y-3.7641
X7.3Y-2.9
X7.3Y-3.4
X7.3441Y-3.84
X7.4Y-2.2
X7.4Y-2.4
X7.42Y-3.9944
X7.4571Y-3.96
X7.6Y-2.9
X7.6Y-3.4
X7.7Y-3.576
T2
X4.3355Y-2.29
X4.3355Y-3.89
X4.3632Y-2.2232
X4.3632Y-2.3568
X4.3632Y-3.8232
X4.3632Y-3.9568
X4.43Y-2.1955
X4.43Y-2.3845
X4.43Y-3.7955
X4.43Y-3.9845
X4.4968Y-2.2232
X4.4968Y-2.3568
X4.4968Y-3.8232
X4.4968Y-3.9568
X4.5245Y-2.29
X4.5245Y-3.89
X7.5355Y-2.29
X7.5355Y-3.89
X7.5632Y-2.2232
X7.5632Y-2.3568
X7.5632Y-3.8232
X7.5632Y-3.9568
X7.63Y-2.1955
X7.63Y-2.3845
X7.63Y-3.7955
X7.63Y-3.9845
X7.6968Y-2.2232
X7.6968Y-2.3568
X7.6968Y-3.8232
X7.6968Y-3.9568
X7.7245Y-2.29
X7.7245Y-3.89
T3
X6.9Y-3.96
X7.0Y-3.96
X7.1Y-3.96
T4
X4.385Y-2.86
X4.385Y-2.96
X4.385Y-3.06
X4.385Y-3.28
X4.385Y-3.38
X4.385Y-3.48
X4.385Y-3.58
X5.045Y-3.93
X5.145Y-3.93
X5.245Y-3.93
X5.46Y-3.93
X5.55Y-2.24
X5.56Y-3.93
X5.65Y-2.24
X5.66Y-3.93
X5.75Y-2.24
X5.85Y-2.24
X5.875Y-3.93
X5.95Y-2.24
X5.975Y-3.93
X6.05Y-2.24
X6.075Y-3.93
X6.15Y-2.24
X6.175Y-3.93
X6.25Y-2.24
X6.275Y-3.93
X6.375Y-3.93
X6.46Y-2.24
X6.475Y-3.93
X6.56Y-2.24
X6.575Y-3.93
X6.675Y-3.93
T5
X4.6704Y-2.39
X4.71Y-2.72
X4.71Y-3.62
X4.81Y-2.72
X4.81Y-3.62
X4.91Y-2.72
X4.91Y-3.62
X4.9696Y-2.39
X5.01Y-2.72
X5.01Y-3.62
X5.11Y-2.72
X5.11Y-3.62
X5.21Y-2.72
X5.21Y-3.62
X5.31Y-2.72
X5.31Y-3.62
X5.3475Y-2.27
X5.3475Y-2.37
X5.3475Y-2.47
X5.3475Y-2.57
X5.41Y-2.72
X5.41Y-3.62
X5.51Y-2.72
X5.51Y-3.62
X5.61Y-2.72
X5.61Y-3.62
X5.71Y-2.72
X5.71Y-3.62
X5.81Y-2.72
X5.81Y-3.62
X5.91Y-2.72
X5.91Y-3.62
X6.01Y-2.72
X6.01Y-3.62
X6.11Y-2.72
X6.11Y-3.62
X6.21Y-2.72
X6.21Y-3.62
X6.31Y-2.72
X6.31Y-3.62
X6.41Y-2.72
X6.41Y-3.62
X6.51Y-2.72
X6.51Y-3.62
X6.61Y-2.72
X6.61Y-3.62
X6.71Y-2.72
X6.71Y-3.62
X7.3168Y-3.56
X7.5136Y-3.56
T6
X6.9318Y-3.17
X6.9335Y-2.636
X7.1484Y-3.17
X7.15Y-2.636
T7
X4.43Y-2.29
X4.43Y-3.89
X7.63Y-2.29
X7.63Y-3.89
M30
